<svg viewBox="0 0 25 25" id="marketing" xmlns="http://www.w3.org/2000/svg"><g fill="none" fill-rule="evenodd"><g><path d="M20.393 15.763c-1.32 3.19-4.51 5.413-8.207 5.28-4.246-.153-7.843-3.563-8.202-7.797a8.544 8.544 0 016.363-9.01.882.882 0 00.205-.08l3.939-2.171c.848-.47.602-1.744-.36-1.875a12.169 12.169 0 00-3.1-.021C4.866.835.056 6.177 0 12.387-.061 19.343 5.559 25 12.5 25c6.084 0 11.142-4.348 12.258-10.106.164-.844-.751-1.49-1.493-1.055l-2.46 1.44a.993.993 0 00-.412.484" fill="#33475B"></path></g><g transform="translate(12)"><path d="M11.963 9.291l-1.7-.508L12.696.636c.127-.424-.309-.786-.69-.574L1.06 6.158c-.382.213-.328.787.085.91l1.701.51-2.436 8.146c-.127.424.31.786.691.573l10.946-6.095c.382-.213.328-.787-.085-.91" fill="#FF7A59"></path></g></g></svg>
