<svg viewBox="0 0 31 25" id="service" xmlns="http://www.w3.org/2000/svg"><g fill="none" fill-rule="evenodd"><g transform="translate(7 -.04)"><path d="M12.383.042a.492.492 0 00-.467.713 8.27 8.27 0 01.861 2.956c.02.218.174.39.388.435a8.546 8.546 0 016.68 9.688c-.543 3.59-3.422 6.51-7.005 7.097a8.539 8.539 0 01-8.53-3.665.525.525 0 00-.731-.158c-.597.403-1.403.93-2.555.847-.401-.03-.661.407-.462.756 2.194 3.823 6.341 6.38 11.087 6.287 6.511-.128 11.964-5.453 12.238-11.962C24.17 6.224 19 .559 12.383.042" fill="#33475B"></path></g><path d="M14.836 1.286a4.342 4.342 0 011.38 2.055c.257.813.295 1.633.112 2.456a4.247 4.247 0 01-1.172 2.135L8.96 14.354a1.02 1.02 0 01-.74.322c-.278 0-.524-.108-.738-.322L1.285 7.965A4.472 4.472 0 01.113 5.797a4.682 4.682 0 01.113-2.456 4.33 4.33 0 011.38-2.055A4.074 4.074 0 013.566.354a4.338 4.338 0 012.152.161 4.552 4.552 0 011.862 1.188l.642.643.642-.643A4.562 4.562 0 0110.726.515a4.333 4.333 0 012.15-.16c.729.128 1.382.44 1.96.931" fill="#FF7A59"></path></g></svg>
