<svg viewBox="0 0 27 28" id="cms" xmlns="http://www.w3.org/2000/svg"><g fill="none" fill-rule="evenodd"><g transform="translate(12 14.458)"><path d="M7.555 2.645L1.218.19A.613.613 0 00.5.794v9.102c0 .299.216.554.51.604l6.545 2.492a.66.66 0 00.208 0l6.545-2.492a.613.613 0 00.51-.604V.794A.613.613 0 0014.1.19L7.763 2.645a.605.605 0 01-.208 0" fill="#FF7A59"></path></g><path d="M9.318 20.425c-3.462-1.39-5.808-4.973-5.296-9.036.484-3.84 3.635-6.945 7.482-7.38a8.55 8.55 0 019.544 8.491c0 .306-.09.466.127.682.342.34 3.439-1.177 3.439-1.177a.514.514 0 00.329-.517C24.409 4.834 18.68-.352 11.806.02 5.459.362.27 5.624.01 11.976c-.24 5.871 3.576 10.877 8.87 12.477a.496.496 0 00.635-.482c-.006-.965-.013-2.712-.015-3.286a.28.28 0 00-.183-.26" fill="#33475B"></path></g></svg>
