<svg viewBox="0 0 25 29" id="sales" xmlns="http://www.w3.org/2000/svg"><g fill="none" fill-rule="evenodd"><g transform="translate(0 -.981)"><path d="M4.09 14.976c-.276-1.514-.165-3.161.604-4.89 1.222-2.743 3.802-4.748 6.786-5.093a8.55 8.55 0 019.569 8.489c0 .574-.164 1.433-.301 2.05a.993.993 0 00.493 1.093c.466.249 1.093.619 1.62 1.044.533.43 1.353.203 1.56-.451.44-1.386.647-2.874.56-4.426C24.628 6.38 19.25 1.15 12.83.986 5.776.805-.001 6.469-.001 13.482c0 1.179.169 2.316.478 3.395.222.78 1.206.999 1.736.387.429-.493.94-.995 1.445-1.291.34-.2.502-.608.432-.997" fill="#33475B"></path></g><g transform="translate(4 12.019)"><path d="M16.282 6.287l-4.652-.876-1.917-4.329a.988.988 0 00-.915-.595.986.986 0 00-.877.521L5.65 5.162l-4.71.485a1 1 0 00-.624 1.681l3.249 3.443-.994 4.628a1.003 1.003 0 00.977 1.213c.14 0 .287-.03.429-.098l4.279-2.027 4.094 2.375a.988.988 0 00.5.138c.568 0 1.077-.495.994-1.13l-.605-4.695 3.524-3.16a1 1 0 00-.482-1.728" fill="#FF7A59"></path></g></g></svg>
